# xmcd
#
# Track frame offsets: 
#        150
#        13922
#        27332
#        39062
#        50180
#        62363
#        73080
#        85260
#        96681
#        109070
#        120623
#        134726
#        146920
#        158441
#        169772
#        179726
#        193007
#        202609
#        215319
#        226638
#        237268
#        249606
#        260639
#        269191
#        279235
#        291774
#
# Disc length: 4082 seconds
#
# Revision: 3
# Processed by: cddbd v1.5.2PL0 Copyright (c) Steve Scherf et al.
# Submitted via: ExactAudioCopyFreeDBPlugin 1.0
#
DISCID=890ff01a
DTITLE=The Ovations - Goldwax Recordings
DYEAR=2005
DGENRE=Soul
TTITLE0=I've Gotta Go
TTITLE1=I Know You Don't Want Me
TTITLE2=Don't Cry
TTITLE3=I Believe I'll Go Back Home
TTITLE4=I Miss You Baby
TTITLE5=Let's Stick Together
TTITLE6=Qualifications
TTITLE7=Recipe for Love
TTITLE8=I'm Living Good
TTITLE9=Hide My Troubles and Blues Away
TTITLE10=Happiness
TTITLE11=You Had Your Choice
TTITLE12=Adiós Señorita
TTITLE13=Pretty Little Angel
TTITLE14=Rockin' Chair
TTITLE15=What Did I Do Wrong
TTITLE16=They Say
TTITLE17=Dance Party
TTITLE18=I Need a Lot of Loving
TTITLE19=Me and My Imagination
TTITLE20=Peace of Mind
TTITLE21=I Like Summertime
TTITLE22=When It Comes to Loving
TTITLE23=You and Tom
TTITLE24=Won't You Call
TTITLE25=It's Wonderful to Be in Love
EXTD=Kent Records, UK YEAR: 2005
EXTT0=
EXTT1=
EXTT2=
EXTT3=
EXTT4=
EXTT5=
EXTT6=
EXTT7=
EXTT8=
EXTT9=
EXTT10=
EXTT11=
EXTT12=
EXTT13=
EXTT14=
EXTT15=
EXTT16=
EXTT17=
EXTT18=
EXTT19=
EXTT20=
EXTT21=
EXTT22=
EXTT23=
EXTT24=
EXTT25=
PLAYORDER=
